# AST/ASF file generated using VICON BodyLanguage
# -----------------------------------------------
:version 1.10
:name VICON
:units
  mass 1.0
  length 0.45
  angle deg
:documentation
   .ast/.asf automatically generated from VICON data using
   VICON BodyBuilder and BodyLanguage model FoxedUp or BRILLIANT.MOD
:root
   order TX TY TZ RX RY RZ
   axis XYZ
   position 0 0 0  
   orientation 0 0 0 
:bonedata
  begin
     id 1 
     name lhipjoint
     direction 0.716248 -0.617586 0.324924 
     length 2.63557 
     axis 0 0 0  XYZ
  end
  begin
     id 2 
     name lfemur
     direction 0.34202 -0.939693 0  
     length 7.01235  
     axis 0 0 20  XYZ
    dof rx ry rz
    limits (-160.0 20.0)
           (-70.0 70.0)
           (-60.0 70.0)
  end
  begin
     id 3 
     name ltibia
     direction 0.34202 -0.939693 0   
     length 8.14348   
     axis 0 0 20   XYZ
    dof rx
    limits (-10.0 170.0)
  end
  begin
     id 4 
     name lfoot
     direction 0.0982064 -0.26982 0.95789   
     length 1.99077   
     axis -90 7.62852e-016 20   XYZ
    dof rx rz
    limits (-45.0 90.0)
           (-70.0 20.0)
  end
  begin
     id 5 
     name ltoes
     direction 1.53511e-011 -4.21891e-011 1   
     length 0.99735   
     axis -90 7.62852e-016 20   XYZ
    dof rx
    limits (-90.0 20.0)
  end
  begin
     id 6 
     name rhipjoint
     direction -0.687828 -0.642391 0.337975   
     length 2.5338  
     axis 0 0 0  XYZ 
  end
  begin
     id 7 
     name rfemur
     direction -0.34202 -0.939693 0   
     length 6.90199   
     axis 0 0 -20   XYZ
    dof rx ry rz
    limits (-160.0 20.0)
           (-70.0 70.0)
           (-70.0 60.0)
  end
  begin
     id 8 
     name rtibia
     direction -0.34202 -0.939693 0   
     length 8.07725   
     axis 0 0 -20   XYZ
    dof rx
    limits (-10.0 170.0)
 end
 begin
     id 9 
     name rfoot
     direction -0.0912384 -0.250675 0.963762   
     length 2.11621  
     axis -90 -7.62852e-016 -20   XYZ
    dof rx rz
    limits (-45.0 90.0)
           (-20.0 70.0)
  end
  begin
     id 10 
     name rtoes
     direction -1.5359e-011 -4.21894e-011 1   
     length 1.06031   
     axis -90 -7.62852e-016 -20   XYZ
    dof rx
    limits (-90.0 20.0)
  end
  begin
     id 11 
     name lowerback
     direction -0.0403572 0.987953 -0.149396   
     length 2.05637   
     axis 0 0 0   XYZ
    dof rx ry rz
    limits (-20.0 45.0)
           (-30.0 30.0)
           (-30.0 30.0)
  end
  begin
     id 12 
     name upperback
     direction -0.00512151 0.997598 0.0690792   
     length 2.01086   
     axis 0 0 0   XYZ
    dof rx ry rz
    limits (-20.0 45.0)
           (-30.0 30.0)
           (-30.0 30.0)
  end
  begin
     id 13 
     name thorax
     direction 0.0136133 0.989392 0.14463   
     length 2.09035   
     axis 0 0 0   XYZ
    dof rx ry rz
    limits (-20.0 45.0)
           (-30.0 30.0)
           (-30.0 30.0)
  end
  begin
     id 14 
     name lowerneck
     direction 0.0250714 0.992811 0.11704   
     length 1.70806   
     axis 0 0 0   XYZ
    dof rx ry rz
    limits (-20.0 45.0)
           (-30.0 30.0)
           (-30.0 30.0)
  end
  begin
     id 15 
     name upperneck
     direction -0.0519205 0.998394 -0.0226787   
     length 1.6689   
     axis 0 0 0   XYZ
    dof rx ry rz
    limits (-20.0 45.0)
           (-30.0 30.0)
           (-30.0 30.0)
  end
  begin
     id 16
     name head
     direction -0.0201693 0.999547 -0.0223192  
     length 1.83412  
     axis 0 0 0   XYZ
    dof rx ry rz
    limits (-20.0 45.0)
           (-30.0 30.0)
           (-30.0 30.0)
  end
  begin
     id 17 
     name lclavicle
     direction 0.89585 0.444077 -0.0157448  
     length 3.39587  
     axis 0 0 0   XYZ
    dof ry rz
    limits (-20.0 10.0)
           (0.0 20.0)
  end
  begin
     id 18 
     name lhumerus
     direction 1 -4.48956e-011 1.99132e-028   
     length 5.79199   
     axis 180 -30 -90   XYZ
    dof rx ry rz
    limits (-60.0 90.0)
           (-90.0 90.0)
           (-90.0 90.0)
  end
  begin
     id 19
     name lradius
     direction 1 -4.48974e-011 8.72912e-028   
     length 3.49908   
     axis 180 -30 -90   XYZ
    dof rx
    limits (-10.0 170.0)
  end
  begin
     id 20
     name lwrist
     direction 1 -4.48994e-011 4.76442e-027   
     length 1.74954   
     axis -3.27502e-015 90 90   XYZ
    dof ry
    limits (-180.0 0.0)
 end
  begin
     id 21 
     name lhand
     direction 1 -4.48945e-011 9.531e-027   
     length 0.593861   
     axis -6.08098e-015 90 90   XYZ
    dof rx rz
    limits (-90.0 90.0)
           (-45.0 45.0)
  end
  begin
     id 22 
     name lfingers
     direction 1 -4.48945e-011 1.9062e-026   
     length 0.478786   
     axis -1.21619e-014 90 90   XYZ
    dof rx
    limits (0.0 90.0)
  end
  begin
     id 23
     name lthumb
     direction 0.707107 -6.34904e-011 0.707107   
     length 0.687444   
     axis -90 45 -9.86923e-015   XYZ
    dof rx rz
    limits (-45.0 45.0)
           (-45.0 45.0)
  end
  begin
     id 24 
     name rclavicle
     direction -0.940466 0.338394 0.0318182   
     length 3.51226  
     axis 0 0 0   XYZ 
    dof ry rz
    limits (-10.0 20.0)
           (-20.0 0.0)
  end
  begin
     id 25 
     name rhumerus
     direction -1 -4.48976e-011 2.0905e-027  
     length 5.73799   
     axis 180 30 90   XYZ
    dof rx ry rz
    limits (-90.0 60.0)
           (-90.0 90.0)
           (-90.0 90.0)
  end
  begin
     id 26 
     name rradius
     direction -1 -4.48968e-011 -9.39692e-029   
     length 3.57916   
     axis 180 30 90   XYZ
    dof rx
    limits (-10.0 170.0)
  end
  begin
     id 27 
     name rwrist
     direction -1 -4.48959e-011 4.7652e-027   
     length 1.78958   
     axis -3.27502e-015 -90 -90   XYZ
    dof ry
    limits (-180.0 0.0)
  end
  begin
     id 28
     name rhand
     direction -1 -4.49042e-011 9.5267e-027   
     length 0.615577   
     axis -6.08098e-015 -90 -90   XYZ
    dof rx rz
    limits (-90.0 90.0)
           (-45.0 45.0)
  end
  begin
     id 29
     name rfingers
     direction -1 -4.48935e-011 1.90629e-026   
     length 0.496294   
     axis -1.21619e-014 -90 -90   XYZ
    dof rx
    limits (0.0 90.0)
  end
  begin
     id 30
     name rthumb
     direction -0.707107 -6.34977e-011 0.707107   
     length 0.712582   
     axis -90 -45 9.86923e-015   XYZ
    dof rx rz
    limits (-45.0 45.0)
           (-45.0 45.0)
  end
:hierarchy
  begin
    root lhipjoint rhipjoint lowerback
    lhipjoint lfemur
    lfemur ltibia
    ltibia lfoot
    lfoot ltoes
    rhipjoint rfemur
    rfemur rtibia
    rtibia rfoot
    rfoot rtoes
    lowerback upperback
    upperback thorax
    thorax lowerneck lclavicle rclavicle
    lowerneck upperneck
    upperneck head
    lclavicle lhumerus
    lhumerus lradius
    lradius lwrist
    lwrist lhand lthumb
    lhand lfingers
    rclavicle rhumerus
    rhumerus rradius
    rradius rwrist
    rwrist rhand rthumb
    rhand rfingers
  end

#!OML:ASF H:\Terrain\Patient Classification 1\PaulMetrics\March17Take5\PaulMetrics.ASF
:FULLY-SPECIFIED
:DEGREES
535
root 14.7273 17.4574 -15.9735 4.76608 -54.1165 1.24726
lowerback 1.6853 0.856216 -4.38131
upperback -3.03689 0.95377 -0.289083
thorax -4.15166 0.601037 2.10585
lowerneck -6.0287 2.50921 4.16407
upperneck 8.81247 3.14951 -2.1649
head 4.09237 1.59113 -1.29474
rclavicle -2.61262e-014 6.55989e-015
rhumerus 11.3698 16.809 -75.9149
rradius 131.044
rwrist -23.1886
rhand -17.9899 -17.0675
rfingers 7.12502
rthumb 8.28007 -46.8853
lclavicle -2.61262e-014 6.55989e-015
lhumerus 13.5238 -16.1705 77.2513
lradius 130.783
lwrist 42.7107
lhand -23.2441 -30.1411
lfingers 7.12502
lthumb 3.20741 -0.18545
rfemur -8.17496 4.10356 19.486
rtibia 20.6687
rfoot -17.6862 -23.5804
rtoes -4.86209
lfemur -17.6053 -5.65809 -9.36966
ltibia 24.1475
lfoot -14.2941 9.41092
ltoes -7.95465
536
root 14.7279 17.4493 -15.9794 4.6966 -54.0379 1.43578
lowerback 1.70056 0.88451 -4.53372
upperback -3.04673 0.983063 -0.32592
thorax -4.17556 0.620255 2.1511
lowerneck -6.0106 2.45273 4.03771
upperneck 8.90104 3.07178 -2.01044
head 4.11026 1.5557 -1.22442
rclavicle 5.97131e-015 1.66979e-014
rhumerus 11.0805 16.8525 -75.9773
rradius 131.12
rwrist -22.7893
rhand -18.2158 -17.2383
rfingers 7.12502
rthumb 8.06202 -47.0645
lclavicle 5.97131e-015 1.66979e-014
lhumerus 13.4359 -16.3969 77.4282
lradius 130.745
lwrist 42.5013
lhand -23.6578 -30.321
lfingers 7.12502
lthumb 2.80785 -0.35976
rfemur -8.39191 3.80215 19.4309
rtibia 20.857
rfoot -16.7642 -23.8556
rtoes -8.01799
lfemur -17.697 -5.70177 -9.45054
ltibia 24.0883
lfoot -14.4057 9.32214
ltoes -7.28408
537
root 14.7248 17.4555 -15.9872 4.22881 -54.0222 2.10763
lowerback 1.70069 0.933475 -4.94182
upperback -3.0509 1.02758 -0.441965
thorax -4.19105 0.65319 2.25681
lowerneck -6.07308 2.3887 4.01109
upperneck 9.09151 2.99769 -2.12306
head 4.19052 1.51318 -1.26187
rclavicle 4.6469e-014 -1.0138e-014
rhumerus 10.9333 16.8243 -75.9325
rradius 131.112
rwrist -22.564
rhand -18.5074 -17.6594
rfingers 7.12502
rthumb 7.78063 -47.4962
lclavicle 4.6469e-014 -1.0138e-014
lhumerus 13.337 -16.428 77.6319
lradius 130.741
lwrist 42.462
lhand -23.3029 -30.3297
lfingers 7.12502
lthumb 3.15061 -0.373236
rfemur -8.52134 3.77165 19.0124
rtibia 20.9288
rfoot -16.4507 -23.8136
rtoes -7.87736
lfemur -17.8377 -5.77477 -9.85803
ltibia 24.1437
lfoot -14.2749 9.43403
ltoes -8.51833
538
root 14.7263 17.4626 -15.9918 3.95089 -54.0003 2.43006
lowerback 1.83771 0.909017 -5.1392
upperback -3.06804 0.976072 -0.491405
thorax -4.28674 0.635208 2.31675
lowerneck -5.8944 2.45444 4.25532
upperneck 9.11719 3.09632 -2.40351
head 4.18137 1.55826 -1.39676
rclavicle -1.85274e-014 -1.53064e-014
rhumerus 11.0087 16.8257 -75.9271
rradius 130.922
rwrist -22.7626
rhand -18.738 -17.3671
rfingers 7.12502
rthumb 7.55809 -47.2121
lclavicle -1.85274e-014 -1.53064e-014
lhumerus 13.222 -16.2581 77.5457
lradius 130.758
lwrist 42.6333
lhand -22.9588 -30.2147
lfingers 7.12502
lthumb 3.4829 -0.263394
rfemur -8.54988 3.65858 18.8099
rtibia 20.9831
rfoot -16.4164 -23.8398
rtoes -8.97985
lfemur -17.8735 -5.77567 -10.0931
ltibia 24.1279
lfoot -13.9069 9.72433
ltoes -11.5752
539
root 14.7296 17.4602 -15.9946 3.97737 -53.9781 2.35312
lowerback 1.97049 0.928918 -5.10345
upperback -3.07201 0.996194 -0.48755
thorax -4.36719 0.646132 2.29752
lowerneck -5.76403 2.48741 4.3898
upperneck 9.13975 3.1379 -2.45786
head 4.17016 1.58168 -1.43811
rclavicle -2.52798e-014 1.41137e-014
rhumerus 11.0414 16.6815 -75.8571
rradius 130.741
rwrist -23.0323
rhand -19.0418 -16.9055
rfingers 7.12502
rthumb 7.26477 -46.7608
lclavicle -2.52798e-014 1.41137e-014
lhumerus 13.1844 -16.2486 77.4508
lradius 130.816
lwrist 43.0827
lhand -22.8808 -30.0827
lfingers 7.12502
lthumb 3.55824 -0.132686
rfemur -8.53907 3.59563 18.8417
rtibia 21.001
rfoot -16.6365 -23.789
rtoes -8.94233
lfemur -17.8729 -5.71494 -10.0692
ltibia 24.0925
lfoot -13.8345 9.89875
ltoes -12.4798
540
root 14.7308 17.4531 -15.9949 4.25462 -53.9335 2.06249
lowerback 1.8523 0.826076 -4.81266
upperback -3.0296 0.882316 -0.421748
thorax -4.24113 0.578196 2.21185
lowerneck -5.70413 2.60093 4.15353
upperneck 9.23964 3.30615 -2.35925
head 4.19155 1.66118 -1.3529
rclavicle 4.95657e-014 -3.18055e-015
rhumerus 11.0833 16.9306 -75.8868
rradius 130.664
rwrist -23.103
rhand -19.353 -17.1594
rfingers 7.12502
rthumb 6.96444 -47.0248
lclavicle 4.95657e-014 -3.18055e-015
lhumerus 13.0796 -15.9032 77.4343
lradius 130.876
lwrist 43.4966
lhand -22.3808 -30.1023
lfingers 7.12502
lthumb 4.04104 -0.160922
rfemur -8.60172 3.55773 19.0049
rtibia 21.0506
rfoot -16.8473 -23.6442
rtoes -7.90451
lfemur -17.8558 -5.66013 -9.86698
ltibia 23.9723
lfoot -13.9934 9.821
ltoes -11.0103
541
root 14.7312 17.4593 -15.9987 4.52388 -53.9207 1.91138
lowerback 1.54643 0.607568 -4.61824
upperback -2.94605 0.621123 -0.343061
thorax -3.95807 0.436477 2.20288
lowerneck -5.58051 2.7926 3.77279
upperneck 9.24042 3.59091 -2.22474
head 4.16309 1.79463 -1.22361
rclavicle -5.29264e-015 2.20651e-014
rhumerus 11.5682 17.3414 -75.9327
rradius 130.413
rwrist -23.1115
rhand -19.6617 -16.7965
rfingers 7.12502
rthumb 6.66639 -46.6716
lclavicle -5.29264e-015 2.20651e-014
lhumerus 13.0318 -15.2773 77.2663
lradius 130.894
lwrist 43.7404
lhand -22.0337 -30.0107
lfingers 7.12502
lthumb 4.37624 -0.0758823
rfemur -8.78369 3.71552 19.0576
rtibia 21.1032
rfoot -17.3151 -23.4243
rtoes -5.46544
lfemur -17.9726 -5.61877 -9.73522
ltibia 23.9237
lfoot -13.9008 9.66721
ltoes -9.71473
